<?xml version="1.0" standalone="no"?>
<!DOCTYPE svg PUBLIC "-//W3C//DTD SVG 20010904//EN"
 "http://www.w3.org/TR/2001/REC-SVG-20010904/DTD/svg10.dtd">
<svg version="1.0" xmlns="http://www.w3.org/2000/svg"
 width="512.000000pt" height="512.000000pt" viewBox="0 0 512.000000 512.000000"
 preserveAspectRatio="xMidYMid meet">

<g transform="translate(0.000000,512.000000) scale(0.100000,-0.100000)"
fill="#000000" stroke="none">
<path d="M2175 3986 c-16 -7 -39 -24 -51 -37 -12 -13 -385 -607 -830 -1319
l-809 -1295 0 -57 c0 -61 17 -94 69 -132 l27 -21 1979 0 1979 0 27 21 c52 38
69 71 69 132 l0 57 -648 1010 c-357 556 -664 1024 -682 1042 -59 56 -151 56
-210 0 -26 -26 -707 -1104 -755 -1196 -17 -34 -8 -112 19 -150 30 -42 76 -64
132 -65 89 0 90 1 404 507 158 254 293 467 299 474 8 9 133 -178 499 -748 269
-419 487 -762 485 -765 -3 -2 -734 -3 -1625 -2 l-1621 3 651 1042 c359 574
654 1043 657 1043 3 0 54 -78 113 -172 130 -209 124 -200 167 -227 114 -69
267 45 231 174 -9 35 -356 599 -395 644 -42 48 -120 64 -181 37z"/>
</g>
</svg>
