<svg xmlns="http://www.w3.org/2000/svg" version="1.0" viewBox="0 0 512 512"><path d="M2175 3986c-16-7-39-24-51-37s-385-607-830-1319L485 1335v-57c0-61 17-94 69-132l27-21h3958l27 21c52 38 69 71 69 132v57l-648 1010c-357 556-664 1024-682 1042-59 56-151 56-210 0-26-26-707-1104-755-1196-17-34-8-112 19-150 30-42 76-64 132-65 89 0 90 1 404 507 158 254 293 467 299 474 8 9 133-178 499-748 269-419 487-762 485-765-3-2-734-3-1625-2l-1621 3 651 1042c359 574 654 1043 657 1043s54-78 113-172c130-209 124-200 167-227 114-69 267 45 231 174-9 35-356 599-395 644-42 48-120 64-181 37z" transform="matrix(.1 0 0 -.1 0 512)"/></svg>